<svg width="24" height="25" viewBox="0 0 24 25" fill="none" xmlns="http://www.w3.org/2000/svg">
<path d="M3.32106 6.98806C3.43965 5.96154 3.88413 5.00006 4.58927 4.2447C5.29442 3.48934 6.22311 2.97987 7.23906 2.79106L7.45406 2.75106C10.4584 2.18942 13.5407 2.18942 16.5451 2.75106L16.8681 2.81106C17.8538 2.99408 18.7552 3.48745 19.4407 4.21913C20.1261 4.95082 20.5597 5.88248 20.6781 6.87806C21.0961 10.4221 21.1081 14.0031 20.7121 17.5501L20.6951 17.7041C20.5733 18.7845 20.0913 19.7924 19.3266 20.5653C18.5619 21.3381 17.5591 21.8309 16.4801 21.9641L15.5741 22.0771C15.0791 22.1391 14.8321 22.1701 14.5841 22.1951C12.8657 22.3745 11.1334 22.3745 9.41506 22.1951C9.08468 22.1589 8.75467 22.1196 8.42506 22.0771L7.41006 21.9511C6.36109 21.8215 5.3861 21.3432 4.64164 20.5929C3.89718 19.8427 3.42646 18.864 3.30506 17.8141C2.89799 14.2627 2.89799 10.6764 3.30506 7.12506L3.32106 6.98806Z" stroke="#111111" stroke-width="1.5"/>
<path d="M17 6.33008C16.28 6.93308 14.49 7.83008 12 7.83008C9.51 7.83008 7.72 6.93308 7 6.33008" stroke="#111111" stroke-opacity="0.5" stroke-width="1.5" stroke-linecap="round"/>
</svg>
