<svg width="24" height="25" viewBox="0 0 24 25" fill="none" xmlns="http://www.w3.org/2000/svg">
<g clip-path="url(#clip0_357_2822)">
<path d="M23.25 12.3301C23.25 12.529 23.171 12.7198 23.0303 12.8604C22.8897 13.0011 22.6989 13.0801 22.5 13.0801H20.9372C20.7585 14.128 20.2153 15.0791 19.4033 15.7653C18.5914 16.4515 17.5631 16.8286 16.5 16.8301H12.75V19.0801H15C15.7956 19.0801 16.5587 19.3962 17.1213 19.9588C17.6839 20.5214 18 21.2844 18 22.0801C18 22.279 17.921 22.4698 17.7803 22.6104C17.6397 22.7511 17.4489 22.8301 17.25 22.8301C17.0511 22.8301 16.8603 22.7511 16.7197 22.6104C16.579 22.4698 16.5 22.279 16.5 22.0801C16.5 21.6823 16.342 21.3007 16.0607 21.0194C15.7794 20.7381 15.3978 20.5801 15 20.5801H12.75V22.0801C12.75 22.279 12.671 22.4698 12.5303 22.6104C12.3897 22.7511 12.1989 22.8301 12 22.8301C11.8011 22.8301 11.6103 22.7511 11.4697 22.6104C11.329 22.4698 11.25 22.279 11.25 22.0801V20.5801H9C8.60218 20.5801 8.22064 20.7381 7.93934 21.0194C7.65804 21.3007 7.5 21.6823 7.5 22.0801C7.5 22.279 7.42098 22.4698 7.28033 22.6104C7.13968 22.7511 6.94891 22.8301 6.75 22.8301C6.55109 22.8301 6.36032 22.7511 6.21967 22.6104C6.07902 22.4698 6 22.279 6 22.0801C6 21.2844 6.31607 20.5214 6.87868 19.9588C7.44129 19.3962 8.20435 19.0801 9 19.0801H11.25V16.8301H7.5C6.43694 16.8286 5.40861 16.4515 4.59668 15.7653C3.78474 15.0791 3.24146 14.128 3.06281 13.0801H1.5C1.30109 13.0801 1.11032 13.0011 0.96967 12.8604C0.829018 12.7198 0.75 12.529 0.75 12.3301C0.75 12.1312 0.829018 11.9404 0.96967 11.7997C1.11032 11.6591 1.30109 11.5801 1.5 11.5801H3.75C3.94891 11.5801 4.13968 11.6591 4.28033 11.7997C4.42098 11.9404 4.5 12.1312 4.5 12.3301C4.5 13.1257 4.81607 13.8888 5.37868 14.4514C5.94129 15.014 6.70435 15.3301 7.5 15.3301H16.5C17.2957 15.3301 18.0587 15.014 18.6213 14.4514C19.1839 13.8888 19.5 13.1257 19.5 12.3301C19.5 12.1312 19.579 11.9404 19.7197 11.7997C19.8603 11.6591 20.0511 11.5801 20.25 11.5801H22.5C22.6989 11.5801 22.8897 11.6591 23.0303 11.7997C23.171 11.9404 23.25 12.1312 23.25 12.3301Z" fill="#111111"/>
<path d="M6.93332 12.8213L6.9333 12.8213C6.86295 12.7402 6.81085 12.6448 6.78052 12.5418C6.75019 12.4388 6.74235 12.3304 6.75752 12.2241L6.75759 12.2241L6.7589 12.2139L8.04414 2.22177C8.07154 2.04463 8.16088 1.88288 8.29638 1.76534L7.80494 1.19879L8.29638 1.76534C8.43296 1.64687 8.6074 1.58117 8.78816 1.58008H15.2119C15.3927 1.58117 15.5671 1.64687 15.7037 1.76534C15.8392 1.88288 15.9285 2.04464 15.9559 2.22178L17.2412 12.2139L17.2411 12.2139L17.2426 12.2241C17.2577 12.3305 17.2499 12.4389 17.2195 12.542C17.1892 12.645 17.137 12.7404 17.0666 12.8215C16.9962 12.9027 16.9092 12.9678 16.8114 13.0124C16.7137 13.057 16.6075 13.0801 16.5001 13.0801H16.5H7.50004C7.39255 13.0801 7.28632 13.057 7.18854 13.0123C7.09076 12.9677 7.00372 12.9025 6.93332 12.8213Z" stroke="black" stroke-opacity="0.5" stroke-width="1.5" stroke-linejoin="round"/>
</g>
<defs>
<clipPath id="clip0_357_2822">
<rect width="24" height="24" fill="white" transform="translate(0 0.330078)"/>
</clipPath>
</defs>
</svg>
