<svg width="33" height="33" viewBox="0 0 33 33" fill="none" xmlns="http://www.w3.org/2000/svg">
<g id="tabler:home-edit">
<g id="Group">
<path id="Vector" d="M12.5 28.3301V20.3301C12.5 19.6228 12.781 18.9445 13.281 18.4444C13.7811 17.9443 14.4594 17.6634 15.1667 17.6634H17.8333C18.6933 17.6634 19.4573 18.0701 19.9453 18.7034" stroke="#111111" stroke-width="1.5" stroke-linecap="round" stroke-linejoin="round"/>
<path id="Vector_2" d="M27.1667 14.9967L16.5 4.33008L4.5 16.3301H7.16667V25.6634C7.16667 26.3707 7.44762 27.0489 7.94772 27.549C8.44781 28.0491 9.12609 28.3301 9.83333 28.3301H15.1667M23.6891 19.8101C23.9491 19.5501 24.2578 19.3438 24.5975 19.2031C24.9372 19.0624 25.3013 18.9899 25.6691 18.9899C26.0368 18.9899 26.4009 19.0624 26.7406 19.2031C27.0804 19.3438 27.389 19.5501 27.6491 19.8101C27.9091 20.0701 28.1153 20.3788 28.2561 20.7185C28.3968 21.0582 28.4692 21.4224 28.4692 21.7901C28.4692 22.1578 28.3968 22.5219 28.2561 22.8616C28.1153 23.2014 27.9091 23.5101 27.6491 23.7701L23.1291 28.3301H19.1291V24.3301L23.6891 19.8101Z" stroke="#111111" stroke-width="1.5" stroke-linecap="round" stroke-linejoin="round"/>
</g>
</g>
</svg>
