<svg width="24" height="25" viewBox="0 0 24 25" fill="none" xmlns="http://www.w3.org/2000/svg">
<path d="M7 15.3301V22.3301M17 15.3301V22.3301M12 11.3301C10.478 11.3301 8.87 11.6231 7.608 12.0141C6.658 12.3081 5.894 13.6521 6.012 14.7431C6.056 15.1471 6.369 15.3301 6.698 15.3301H17.302C17.632 15.3301 17.944 15.1471 17.988 14.7431C18.106 13.6521 17.342 12.3081 16.392 12.0131C15.131 11.6241 13.522 11.3301 12 11.3301Z" stroke="#111111" stroke-opacity="0.5" stroke-width="1.5" stroke-linecap="round" stroke-linejoin="round"/>
<path d="M7.08402 12.3301L6.71802 8.61705C6.46302 6.03005 6.33602 4.73705 6.88702 3.80905C7.92402 2.06405 10.24 2.34705 12 2.34705C13.76 2.34705 16.076 2.06405 17.113 3.80905C17.664 4.73705 17.537 6.03005 17.282 8.61705L16.916 12.3301M7.00002 18.3301H17" stroke="#111111" stroke-width="1.5" stroke-linecap="round" stroke-linejoin="round"/>
</svg>
