<svg width="33" height="33" viewBox="0 0 33 33" fill="none" xmlns="http://www.w3.org/2000/svg">
<g id="hugeicons:tape-measure">
<g id="Group">
<path id="Vector" d="M7.16663 13.6354C7.16663 15.1234 9.55329 16.3301 12.5 16.3301V13.6354C12.5 12.3101 12.5 11.6461 11.9706 11.2421C11.44 10.8381 10.9146 10.9888 9.86396 11.2914C8.25329 11.7568 7.16663 12.6301 7.16663 13.6354Z" stroke="#111111" stroke-width="2" stroke-linecap="round" stroke-linejoin="round"/>
<path id="Vector_2" d="M21.8333 11.6634C21.8333 14.2408 17.6546 16.3301 12.5 16.3301C7.34529 16.3301 3.16663 14.2408 3.16663 11.6634C3.16663 9.0861 7.34529 6.99677 12.5 6.99677C17.6546 6.99677 21.8333 9.0861 21.8333 11.6634Z" stroke="#111111" stroke-width="2" stroke-linecap="round" stroke-linejoin="round"/>
<path id="Vector_3" d="M3.16663 12.3301V21.2194C3.16663 23.6727 7.34529 25.6634 12.5 25.6634H27.1666C28.424 25.6634 29.052 25.6634 29.4426 25.2727C29.8333 24.8821 29.8333 24.2541 29.8333 22.9967V18.9967C29.8333 17.7394 29.8333 17.1114 29.4426 16.7207C29.052 16.3301 28.424 16.3301 27.1666 16.3301H12.5M24.5 25.6634V22.9967M19.1666 25.6634V22.9967M13.8333 25.6634V22.9967M8.49996 24.9967V22.3301" stroke="#111111" stroke-width="2" stroke-linecap="round" stroke-linejoin="round"/>
</g>
</g>
</svg>
