<svg width="23" height="23" viewBox="0 0 23 23" fill="none" xmlns="http://www.w3.org/2000/svg">
<path id="Vector" d="M21.3674 0.330811H2.09569C1.19254 0.330811 0.463074 1.06027 0.463074 1.96342V21.2352C0.463074 22.1383 1.19254 22.8678 2.09569 22.8678H21.3674C22.2705 22.8678 23 22.1383 23 21.2352V1.96342C23 1.06027 22.2705 0.330811 21.3674 0.330811ZM6.81289 19.6234H3.84639V8.74396H6.81289V19.6234ZM5.32616 7.49345C4.36744 7.49345 3.5963 6.71535 3.5963 5.74968C3.5963 4.78401 4.37439 4.00592 5.32616 4.00592C6.27794 4.00592 7.05605 4.78401 7.05605 5.74968C7.05605 6.71535 6.28488 7.49345 5.32616 7.49345ZM18.6788 19.6234H15.7123V14.0795C15.7123 10.7517 11.7593 11.0018 11.7593 14.0795V19.6234H8.79286V8.74396H11.7593V10.4877C13.1418 7.93113 18.6858 7.74355 18.6858 12.9332V19.6164L18.6788 19.6234Z" fill="#808080"/>
</svg>
