<svg width="33" height="33" viewBox="0 0 33 33" fill="none" xmlns="http://www.w3.org/2000/svg">
<g id="hugeicons:glove" clip-path="url(#clip0_357_3098)">
<path id="Vector" d="M11.0653 27.165L9.88202 26.3443C7.75986 24.8723 6.69933 24.1367 6.10738 23.0414C5.51619 21.945 5.47618 20.6434 5.39615 18.0403L5.22603 12.4977C5.20608 11.8256 5.42643 11.1683 5.84751 10.644C6.26858 10.1197 6.86279 9.76263 7.52342 9.63701C7.91341 9.56284 8.31486 9.57433 8.69997 9.6707C9.08507 9.76707 9.44462 9.94601 9.75371 10.1951C10.0628 10.4442 10.314 10.7576 10.49 11.1134C10.666 11.4693 10.7625 11.8591 10.7729 12.2559L10.8782 15.6765L14.3585 10.6587C14.6549 10.2314 14.8031 10.0178 14.9383 9.84387C17.4409 6.62407 21.9292 5.7795 25.3572 7.88613C25.5433 7.99904 25.7548 8.1457 26.1766 8.43827C26.6663 8.77795 26.9106 8.94741 27.0995 9.09624C30.627 11.8804 31.0955 17.0864 28.1288 20.5425C27.9715 20.7271 27.7608 20.9444 27.3408 21.3768L22.9234 25.9394C20.7073 28.2269 19.5995 29.3701 18.24 29.7674C17.6258 29.9457 16.9845 30.0121 16.3468 29.9633C14.9404 29.8527 13.6487 28.9568 11.0664 27.1657M20.3695 27.1277L12.7003 21.8084" stroke="black" stroke-width="2" stroke-linecap="round" stroke-linejoin="round"/>
</g>
<defs>
<clipPath id="clip0_357_3098">
<rect width="32" height="32" fill="white" transform="translate(0.5 0.330078)"/>
</clipPath>
</defs>
</svg>
