<svg width="24" height="20" viewBox="0 0 24 20" fill="none" xmlns="http://www.w3.org/2000/svg">
<path id="Vector" d="M7.77746 19.19C16.6839 19.19 21.5539 11.812 21.5539 5.41352C21.5539 5.2051 21.5539 4.99669 21.54 4.78827C22.4848 4.10744 23.3046 3.25292 23.9576 2.2803C23.0892 2.6624 22.1583 2.9264 21.1787 3.0445C22.1791 2.44704 22.9433 1.49526 23.3046 0.362856C22.3667 0.918638 21.3316 1.32158 20.227 1.53694C19.3447 0.599063 18.0872 0.00854492 16.6908 0.00854492C14.0161 0.00854492 11.8486 2.17609 11.8486 4.85079C11.8486 5.23289 11.8902 5.6011 11.9736 5.95541C7.95114 5.75394 4.38025 3.82954 1.99733 0.897796C1.5805 1.61336 1.34429 2.44704 1.34429 3.32934C1.34429 5.01058 2.1988 6.49035 3.49794 7.35876C2.70595 7.33097 1.95565 7.1156 1.30261 6.75435C1.30261 6.77519 1.30261 6.79603 1.30261 6.81687C1.30261 9.16505 2.96995 11.1172 5.18613 11.5619C4.77624 11.673 4.35246 11.7355 3.90783 11.7355C3.5952 11.7355 3.28952 11.7078 2.99774 11.6452C3.61605 13.5696 5.40149 14.966 7.52041 15.0077C5.86001 16.3068 3.77583 17.078 1.50408 17.078C1.11503 17.078 0.725983 17.0572 0.35083 17.0085C2.49059 18.3841 5.04024 19.183 7.77051 19.183" fill="#808080"/>
</svg>
