<svg width="33" height="33" viewBox="0 0 33 33" fill="none" xmlns="http://www.w3.org/2000/svg">
<g id="mynaui:tool">
<path id="Vector" d="M28.5 10.8101C28.5 10.2368 28.4253 9.67809 28.2853 9.14876C28.1627 8.68343 27.5893 8.57276 27.2507 8.91276L24.9533 11.2101C24.7345 11.429 24.4746 11.6026 24.1887 11.721C23.9027 11.8395 23.5962 11.9005 23.2867 11.9005C22.9771 11.9005 22.6706 11.8395 22.3847 11.721C22.0987 11.6026 21.8389 11.429 21.62 11.2101C21.4011 10.9912 21.2275 10.7314 21.1091 10.4454C20.9906 10.1595 20.9296 9.85296 20.9296 9.54343C20.9296 9.2339 20.9906 8.9274 21.1091 8.64143C21.2275 8.35547 21.4011 8.09563 21.62 7.87676L23.9173 5.58076C24.2573 5.24076 24.1467 4.66743 23.6813 4.54476C22.5405 4.24132 21.3385 4.25528 20.205 4.58514C19.0716 4.91499 18.0497 5.5482 17.2499 6.4164C16.45 7.28461 15.9025 8.35481 15.6665 9.51146C15.4305 10.6681 15.5149 11.8673 15.9107 12.9794C16.0053 13.2461 15.952 13.5448 15.7533 13.7434L4.9 24.5968C4.36667 25.1301 4.36667 25.9954 4.9 26.5274L6.30267 27.9301C6.836 28.4634 7.69867 28.4634 8.232 27.9301L19.0853 17.0768C19.2853 16.8768 19.584 16.8234 19.8493 16.9181C20.8272 17.2657 21.8743 17.3734 22.9024 17.2321C23.9306 17.0908 24.9098 16.7046 25.7576 16.106C26.6054 15.5073 27.297 14.7139 27.7742 13.7923C28.2515 12.8707 28.5004 11.8479 28.5 10.8101Z" stroke="#111111" stroke-width="1.5" stroke-linecap="round" stroke-linejoin="round"/>
</g>
</svg>
