<svg width="24" height="25" viewBox="0 0 24 25" fill="none" xmlns="http://www.w3.org/2000/svg">
<g id="Frame 78" filter="url(#filter0_b_699_502)">
<rect y="0.330078" width="24" height="24" rx="12" fill="white" fill-opacity="0.3"/>
<path id="Vector" d="M17.646 12.0781L12.246 6.67808C12.021 6.45493 11.7169 6.32983 11.4 6.33008H7.2C6.88174 6.33008 6.57652 6.45651 6.35147 6.68155C6.12643 6.90659 6 7.21182 6 7.53008V11.7301C5.99987 11.8884 6.03109 12.0452 6.09185 12.1915C6.1526 12.3377 6.2417 12.4704 6.354 12.5821L11.754 17.9821C11.979 18.2052 12.2831 18.3303 12.6 18.3301C12.9177 18.3287 13.222 18.2014 13.446 17.9761L17.646 13.7761C17.8714 13.5521 17.9987 13.2478 18 12.9301C18.0001 12.7717 17.9689 12.6149 17.9082 12.4687C17.8474 12.3225 17.7583 12.1897 17.646 12.0781ZM12.6 17.1301L7.2 11.7301V7.53008H11.4L16.8 12.9301M8.7 8.13008C8.878 8.13008 9.05201 8.18286 9.20001 8.28176C9.34802 8.38065 9.46337 8.52121 9.53149 8.68566C9.59961 8.85012 9.61743 9.03108 9.58271 9.20566C9.54798 9.38024 9.46226 9.54061 9.3364 9.66647C9.21053 9.79234 9.05016 9.87806 8.87558 9.91279C8.701 9.94751 8.52004 9.92969 8.35559 9.86157C8.19113 9.79345 8.05057 9.6781 7.95168 9.53009C7.85278 9.38209 7.8 9.20808 7.8 9.03008C7.8 8.79138 7.89482 8.56246 8.0636 8.39368C8.23239 8.2249 8.46131 8.13008 8.7 8.13008Z" fill="#BC7119"/>
</g>
<defs>
<filter id="filter0_b_699_502" x="-4" y="-3.66992" width="32" height="32" filterUnits="userSpaceOnUse" color-interpolation-filters="sRGB">
<feFlood flood-opacity="0" result="BackgroundImageFix"/>
<feGaussianBlur in="BackgroundImageFix" stdDeviation="2"/>
<feComposite in2="SourceAlpha" operator="in" result="effect1_backgroundBlur_699_502"/>
<feBlend mode="normal" in="SourceGraphic" in2="effect1_backgroundBlur_699_502" result="shape"/>
</filter>
</defs>
</svg>
