<svg width="33" height="33" viewBox="0 0 33 33" fill="none" xmlns="http://www.w3.org/2000/svg">
<g id="material-symbols:policy-outline-rounded">
<path id="Vector" d="M16.5 29.5301C16.3445 29.5301 16.2 29.5189 16.0667 29.4967C15.9334 29.4745 15.8 29.4412 15.6667 29.3967C12.6667 28.3967 10.2778 26.5469 8.50004 23.8474C6.72226 21.1478 5.83337 18.2421 5.83337 15.1301V8.83005C5.83337 8.27449 5.99471 7.77449 6.31737 7.33005C6.64004 6.88561 7.05649 6.56338 7.56671 6.36338L15.5667 3.36338C15.8778 3.25227 16.1889 3.19672 16.5 3.19672C16.8112 3.19672 17.1223 3.25227 17.4334 3.36338L25.4334 6.36338C25.9445 6.56338 26.3614 6.88561 26.684 7.33005C27.0067 7.77449 27.1676 8.27449 27.1667 8.83005V15.1301C27.1667 16.7967 26.9058 18.4247 26.384 20.014C25.8623 21.6034 25.112 23.0421 24.1334 24.3301C23.9556 24.5745 23.7169 24.7025 23.4174 24.7141C23.1178 24.7256 22.8565 24.6198 22.6334 24.3967L19.1667 20.93C18.7667 21.1745 18.3392 21.358 17.884 21.4807C17.4289 21.6034 16.9676 21.6643 16.5 21.6634C15.0334 21.6634 13.7778 21.1412 12.7334 20.0967C11.6889 19.0523 11.1667 17.7967 11.1667 16.3301C11.1667 14.8634 11.6889 13.6078 12.7334 12.5634C13.7778 11.5189 15.0334 10.9967 16.5 10.9967C17.9667 10.9967 19.2223 11.5189 20.2667 12.5634C21.3112 13.6078 21.8334 14.8634 21.8334 16.3301C21.8334 16.8189 21.7725 17.2914 21.6507 17.7474C21.5289 18.2034 21.3454 18.642 21.1 19.0634L23.1 21.0634C23.5445 20.1523 23.8889 19.1967 24.1334 18.1967C24.3778 17.1967 24.5 16.1745 24.5 15.1301V8.83005L16.5 5.83005L8.50004 8.83005V15.1301C8.50004 17.8189 9.2556 20.2634 10.7667 22.4634C12.2778 24.6634 14.1889 26.1301 16.5 26.8634C16.8556 26.7523 17.2058 26.6189 17.5507 26.4634C17.8956 26.3078 18.2343 26.1301 18.5667 25.9301C18.8778 25.7523 19.2165 25.6856 19.5827 25.73C19.9489 25.7745 20.2436 25.9523 20.4667 26.2634C20.6898 26.5745 20.7618 26.9078 20.6827 27.2634C20.6036 27.6189 20.4094 27.8967 20.1 28.0967C19.6556 28.3634 19.2112 28.6025 18.7667 28.8141C18.3223 29.0256 17.8445 29.2198 17.3334 29.3967C17.2 29.4412 17.0667 29.4745 16.9334 29.4967C16.8 29.5189 16.6556 29.5301 16.5 29.5301ZM16.5 18.9967C17.2334 18.9967 17.8614 18.7354 18.384 18.2127C18.9067 17.69 19.1676 17.0625 19.1667 16.3301C19.1658 15.5976 18.9049 14.97 18.384 14.4474C17.8632 13.9247 17.2352 13.6634 16.5 13.6634C15.7649 13.6634 15.1374 13.9247 14.6174 14.4474C14.0974 14.97 13.836 15.5976 13.8334 16.3301C13.8307 17.0625 14.092 17.6905 14.6174 18.2141C15.1427 18.7376 15.7703 18.9985 16.5 18.9967Z" fill="#111111"/>
</g>
</svg>
