<svg width="25" height="25" viewBox="0 0 25 25" fill="none" xmlns="http://www.w3.org/2000/svg">
<path d="M12.5346 2.47679C15.7164 2.47679 16.0985 2.49068 17.356 2.54626C18.5162 2.60184 19.1484 2.79636 19.5722 2.95615C20.128 3.17151 20.524 3.42856 20.9408 3.8454C21.3576 4.26223 21.6147 4.65823 21.83 5.21401C21.9968 5.63085 22.1843 6.26305 22.2399 7.43019C22.2955 8.68765 22.3094 9.0628 22.3094 12.2516C22.3094 15.4404 22.2955 15.8155 22.2399 17.073C22.1843 18.2332 21.9898 18.8654 21.83 19.2892C21.6147 19.845 21.3576 20.241 20.9408 20.6578C20.524 21.0746 20.128 21.3317 19.5722 21.547C19.1553 21.7138 18.5231 21.9014 17.356 21.9569C16.0985 22.0125 15.7234 22.0264 12.5346 22.0264C9.3458 22.0264 8.97065 22.0125 7.71319 21.9569C6.553 21.9014 5.9208 21.7068 5.49701 21.547C4.94123 21.3317 4.54524 21.0746 4.1284 20.6578C3.71156 20.241 3.45452 19.845 3.23915 19.2892C3.07242 18.8723 2.88484 18.2401 2.82926 17.073C2.77369 15.8155 2.7598 15.4404 2.7598 12.2516C2.7598 9.0628 2.77369 8.68765 2.82926 7.43019C2.88484 6.27 3.07936 5.63779 3.23915 5.21401C3.45452 4.65823 3.71156 4.26223 4.1284 3.8454C4.54524 3.42856 4.94123 3.17151 5.49701 2.95615C5.91385 2.78941 6.54605 2.60184 7.71319 2.54626C8.97065 2.49068 9.3458 2.47679 12.5346 2.47679ZM12.5346 0.330078C9.29717 0.330078 8.88728 0.343973 7.61593 0.399551C6.34458 0.455129 5.48312 0.6566 4.71892 0.955333C3.93388 1.26101 3.26695 1.6709 2.60696 2.33089C1.94697 2.99088 1.53707 3.65782 1.23139 4.44286C0.939605 5.20012 0.738142 6.06853 0.675617 7.33988C0.620039 8.61123 0.60614 9.02112 0.60614 12.2585C0.60614 15.496 0.620039 15.9059 0.675617 17.1772C0.731195 18.4486 0.932658 19.31 1.23139 20.0742C1.53707 20.8593 1.94697 21.5262 2.60696 22.1862C3.26695 22.8462 3.93388 23.2561 4.71892 23.5618C5.47617 23.8535 6.34458 24.055 7.61593 24.1175C8.88728 24.1731 9.29717 24.187 12.5346 24.187C15.772 24.187 16.1819 24.1731 17.4533 24.1175C18.7246 24.062 19.5861 23.8605 20.3503 23.5618C21.1353 23.2561 21.8023 22.8462 22.4622 22.1862C23.1222 21.5262 23.5321 20.8593 23.8378 20.0742C24.1296 19.317 24.3311 18.4486 24.3936 17.1772C24.4492 15.9059 24.4631 15.496 24.4631 12.2585C24.4631 9.02112 24.4492 8.61123 24.3936 7.33988C24.338 6.06853 24.1365 5.20706 23.8378 4.44286C23.5321 3.65782 23.1222 2.99088 22.4622 2.33089C21.8023 1.6709 21.1353 1.26101 20.3503 0.955333C19.593 0.663547 18.7246 0.462076 17.4533 0.399551C16.1819 0.343973 15.772 0.330078 12.5346 0.330078Z" fill="#808080"/>
<path d="M12.5347 6.13086C9.15141 6.13086 6.41418 8.87503 6.41418 12.2514C6.41418 15.6278 9.15835 18.372 12.5347 18.372C15.9111 18.372 18.6553 15.6278 18.6553 12.2514C18.6553 8.87503 15.9111 6.13086 12.5347 6.13086ZM12.5347 16.2322C10.3394 16.2322 8.56089 14.4537 8.56089 12.2584C8.56089 10.063 10.3394 8.28451 12.5347 8.28451C14.7301 8.28451 16.5086 10.063 16.5086 12.2584C16.5086 14.4537 14.7301 16.2322 12.5347 16.2322Z" fill="#808080"/>
<path d="M18.8976 7.31906C19.688 7.31906 20.3287 6.67832 20.3287 5.88793C20.3287 5.09753 19.688 4.45679 18.8976 4.45679C18.1072 4.45679 17.4664 5.09753 17.4664 5.88793C17.4664 6.67832 18.1072 7.31906 18.8976 7.31906Z" fill="#808080"/>
</svg>
