<svg width="33" height="33" viewBox="0 0 33 33" fill="none" xmlns="http://www.w3.org/2000/svg">
<g id="majesticons:tooltips-line">
<path id="Vector" d="M24.5 13.6634H27.1666C27.8739 13.6634 28.5521 13.9444 29.0522 14.4445C29.5523 14.9446 29.8333 15.6229 29.8333 16.3301V24.3301C29.8333 25.0373 29.5523 25.7156 29.0522 26.2157C28.5521 26.7158 27.8739 26.9968 27.1666 26.9968H25.9266C25.4877 26.9967 25.0556 27.105 24.6685 27.312C24.2815 27.519 23.9516 27.8183 23.708 28.1834L22.9426 29.3328C22.8209 29.5154 22.6559 29.6651 22.4624 29.7687C22.2689 29.8722 22.0528 29.9264 21.8333 29.9264C21.6138 29.9264 21.3977 29.8722 21.2042 29.7687C21.0107 29.6651 20.8457 29.5154 20.724 29.3328L19.9586 28.1848C19.7152 27.8194 19.3853 27.5198 18.9983 27.3126C18.6112 27.1053 18.179 26.9968 17.74 26.9968H16.5C15.7927 26.9968 15.1144 26.7158 14.6143 26.2157C14.1142 25.7156 13.8333 25.0373 13.8333 24.3301V22.9968M16.5 2.99677H5.83329C5.12605 2.99677 4.44777 3.27772 3.94767 3.77781C3.44758 4.27791 3.16663 4.95619 3.16663 5.66343V13.6634C3.16663 14.3707 3.44758 15.049 3.94767 15.549C4.44777 16.0491 5.12605 16.3301 5.83329 16.3301H7.07329C7.51221 16.33 7.94435 16.4383 8.33138 16.6453C8.71841 16.8523 9.04836 17.1517 9.29196 17.5168L10.0573 18.6661C10.1791 18.8487 10.344 18.9984 10.5375 19.102C10.7311 19.2055 10.9471 19.2597 11.1666 19.2597C11.3861 19.2597 11.6022 19.2055 11.7957 19.102C11.9892 18.9984 12.1542 18.8487 12.276 18.6661L13.0413 17.5181C13.2847 17.1527 13.6146 16.8531 14.0017 16.6459C14.3887 16.4387 14.8209 16.3302 15.26 16.3301H16.5C17.2072 16.3301 17.8855 16.0491 18.3856 15.549C18.8857 15.049 19.1666 14.3707 19.1666 13.6634V5.66343C19.1666 4.95619 18.8857 4.27791 18.3856 3.77781C17.8855 3.27772 17.2072 2.99677 16.5 2.99677Z" stroke="#111111" stroke-width="2.66667" stroke-linecap="round" stroke-linejoin="round"/>
</g>
</svg>
