<svg width="24" height="25" viewBox="0 0 24 25" fill="none" xmlns="http://www.w3.org/2000/svg">
<path d="M15.8742 3.68945C15.8742 4.43019 15.774 5.16367 15.5793 5.84802C15.3846 6.53237 15.0992 7.15419 14.7395 7.67797C14.3797 8.20175 13.9526 8.61723 13.4826 8.9007C13.0126 9.18416 12.5088 9.33006 12 9.33006C11.4913 9.33006 10.9875 9.18416 10.5174 8.9007C10.0474 8.61723 9.62033 8.20175 9.26058 7.67797C8.90083 7.15419 8.61546 6.53237 8.42076 5.84802C8.22607 5.16367 8.12586 4.43019 8.12586 3.68945L15.8742 3.68945Z" stroke="#BC7119" stroke-width="1.5" stroke-linecap="round" stroke-linejoin="round"/>
<path d="M8.10392 7.40564C8.24038 7.35365 8.34768 7.23566 8.41045 7.06859C8.47322 6.90153 8.48823 6.69396 8.45333 6.47563L7.72021 6.39859L8.10392 7.40564Z" stroke="#BC7119" stroke-width="1.5" stroke-linecap="round" stroke-linejoin="round"/>
<path d="M2 9.33008H22M19.5 9.33008L22 20.3301M4.5 9.33008L2 20.3301M4 14.3301H20" stroke="#111111" stroke-width="1.5" stroke-linecap="round" stroke-linejoin="round"/>
</svg>
