<svg width="33" height="33" viewBox="0 0 33 33" fill="none" xmlns="http://www.w3.org/2000/svg">
<g id="logos:fabric">
<path id="Vector" d="M21.7648 24.5732C21.6642 25.1395 21.6126 25.4844 21.3978 25.8649C21.2547 26.1187 21.0202 26.2644 20.7814 26.2277C20.5738 26.196 20.3729 26.0791 20.1708 25.977C17.834 24.796 15.9481 22.7165 14.0428 20.6753C13.5887 20.1888 12.6304 19.0624 12.0862 18.4706C13.4112 17.2406 13.9597 16.4798 13.9597 16.4798C16.0948 18.9139 18.5841 21.7635 21.1821 23.1887C21.5961 23.4159 21.9835 23.3422 21.7648 24.5733M19.1241 15.4248C18.523 14.801 17.4717 13.7655 16.8782 13.1643C15.37 11.6366 13.7614 10.3616 11.9162 9.63515C10.9167 9.24168 10.7854 7.92252 11.541 6.75726C11.6784 6.54543 11.8931 6.40646 12.1006 6.46346C15.5373 7.4083 18.1381 10.1735 21.0343 13.6636C20.0544 14.3433 19.124 15.4247 19.124 15.4247" fill="black"/>
<path id="Vector_2" d="M17.0538 18.7C19.1997 15.848 23.3663 12.4019 25.4674 12.2752C25.5882 12.2679 25.7082 12.3031 25.8151 12.3772C25.9219 12.4512 26.0118 12.5615 26.0754 12.6965C26.2823 13.1373 26.3492 13.6652 26.411 14.1842C26.4707 14.6856 26.2716 15.1137 25.9094 15.2469C23.3991 16.1703 20.9611 18.4151 18.9823 20.5585C18.3167 20.1457 17.0538 18.7 17.0538 18.7ZM15.8825 13.2995C13.4173 16.0024 10.7425 19.227 7.85074 20.3816C7.60666 20.4792 7.33718 20.3987 7.16152 20.1556C6.92532 19.8285 6.83484 19.4919 6.73914 19.1643C6.40451 18.0197 6.49935 17.6849 7.36554 17.2472C9.39874 16.2195 11.0905 14.5116 12.7272 12.6859C12.975 12.4095 13.4667 11.8788 13.7378 11.586C14.6345 11.9016 15.8825 13.2995 15.8825 13.2995ZM11.4413 23.2724C12.1482 22.7967 13.2366 22.2353 13.946 21.7119C14.5192 22.3754 15.8461 23.6973 15.8461 23.6973C14.8839 24.542 13.3493 25.7995 12.2809 26.1623C12.0227 26.25 11.7484 26.118 11.5852 25.8409C11.2729 25.3101 11.0922 24.7466 11.0767 24.076C11.0689 23.7397 11.2133 23.4258 11.4413 23.2724ZM17.1731 8.46526C18.4366 7.46189 19.8581 6.70832 20.8321 6.43468C21.1 6.35947 21.38 6.51307 21.527 6.81658C21.8065 7.39374 21.9227 7.97355 21.8942 8.60791C21.8801 8.92084 21.748 9.20481 21.5385 9.35493C20.9274 9.79322 19.8391 10.1349 19.2135 10.4934C19.2135 10.4934 18.1104 9.27153 17.1731 8.46526Z" fill="black"/>
<path id="Vector_3" d="M24.6889 16.755C26.3952 17.6253 27.0246 17.9203 25.7798 20.1782C25.6338 20.4428 25.402 20.4445 25.1598 20.3694C24.3834 20.1286 23.0058 19.0862 22.2432 18.5037C23.6489 17.2268 24.6889 16.755 24.6889 16.755ZM8.52424 15.7435C8.10287 15.5853 7.3012 15.4184 6.93407 15.1248C6.76808 14.9921 6.65649 14.761 6.63272 14.5077C6.5724 13.8675 6.69756 13.291 6.93532 12.7108C6.99912 12.5555 7.09672 12.4288 7.21566 12.3467C7.33459 12.2646 7.46946 12.231 7.60303 12.2501C8.42122 12.3694 9.89987 13.1813 10.7004 13.662C9.54107 15.0637 8.52424 15.7435 8.52424 15.7435Z" fill="black"/>
</g>
</svg>
