<svg width="24" height="25" viewBox="0 0 24 25" fill="none" xmlns="http://www.w3.org/2000/svg">
<path d="M13.5361 9.6744L14.304 12.7462M9.69615 12.7462L10.464 9.6744M16.6079 9.6744H7.39224C7.29137 9.6744 7.19149 9.65453 7.09831 9.61591C7.00513 9.5773 6.92046 9.52071 6.84916 9.44937C6.77785 9.37803 6.7213 9.29334 6.68273 9.20014C6.64417 9.10694 6.62434 9.00705 6.62439 8.90618V4.29836C6.62439 4.19753 6.64425 4.09768 6.68284 4.00452C6.72143 3.91136 6.77799 3.82672 6.84929 3.75541C6.92059 3.68411 7.00523 3.62755 7.09839 3.58897C7.19155 3.55038 7.2914 3.53052 7.39224 3.53052H16.6079C16.8115 3.53052 17.0068 3.61142 17.1508 3.75541C17.2948 3.89941 17.3757 4.09472 17.3757 4.29836V8.90618C17.3758 9.00705 17.3559 9.10694 17.3174 9.20014C17.2788 9.29334 17.2223 9.37803 17.151 9.44937C17.0796 9.52071 16.995 9.5773 16.9018 9.61591C16.8086 9.65453 16.7087 9.6744 16.6079 9.6744Z" stroke="#111111" stroke-opacity="0.5" stroke-width="1.5" stroke-linecap="round" stroke-linejoin="round"/>
<path d="M20.2658 18.3348V21.1295M1.37231 18.3348H22.6277V12.7461H1.37231M1.37231 18.3348V12.7461M1.37231 18.3348H12V12.7461H1.37231M3.73421 18.3348V21.1295" stroke="#111111" stroke-width="1.5" stroke-linecap="round" stroke-linejoin="round"/>
</svg>
