<svg width="20" height="21" viewBox="0 0 20 21" fill="none" xmlns="http://www.w3.org/2000/svg">
<path id="Vector" d="M19.4101 9.75066L10.4101 0.750655C10.0351 0.378734 9.52827 0.170233 9.00012 0.170655L2.00012 0.170655C1.46969 0.170655 0.960982 0.381369 0.585909 0.756441C0.210836 1.13151 0.000122698 1.64022 0.000122698 2.17066L0.000122698 9.17066C-8.64213e-05 9.43457 0.0519388 9.69591 0.1532 9.93962C0.25446 10.1833 0.402954 10.4046 0.590123 10.5907L9.59012 19.5907C9.96511 19.9626 10.472 20.1711 11.0001 20.1707C11.5297 20.1684 12.0368 19.9562 12.4101 19.5807L19.4101 12.5807C19.7857 12.2073 19.9979 11.7002 20.0001 11.1707C20.0003 10.9067 19.9483 10.6454 19.847 10.4017C19.7458 10.158 19.5973 9.93671 19.4101 9.75066ZM11.0001 18.1707L2.00012 9.17066L2.00012 2.17066L9.00012 2.17066L18.0001 11.1707M4.50012 3.17066C4.79679 3.17066 5.0868 3.25863 5.33348 3.42345C5.58015 3.58827 5.77241 3.82254 5.88594 4.09663C5.99947 4.37072 6.02918 4.67232 5.9713 4.96329C5.91342 5.25426 5.77056 5.52154 5.56078 5.73132C5.351 5.94109 5.08373 6.08395 4.79276 6.14183C4.50179 6.19971 4.20019 6.17001 3.9261 6.05647C3.65201 5.94294 3.41774 5.75068 3.25292 5.50401C3.0881 5.25734 3.00012 4.96733 3.00012 4.67065C3.00012 4.27283 3.15816 3.8913 3.43946 3.60999C3.72077 3.32869 4.1023 3.17066 4.50012 3.17066Z" fill="black"/>
</svg>
