<svg width="33" height="33" viewBox="0 0 33 33" fill="none" xmlns="http://www.w3.org/2000/svg">
<g id="fluent:design-ideas-16-regular">
<path id="Vector" d="M14.8162 21.3359C14.2326 21.2707 13.6585 21.1379 13.1055 20.9402C13.1224 20.5428 13.1314 20.1286 13.1325 19.6976V19.1301C13.6544 19.3793 14.2219 19.5528 14.8162 19.6386V15.4881C14.8162 14.8183 15.0823 14.1759 15.556 13.7022C16.0296 13.2286 16.6721 12.9625 17.3419 12.9625H21.4924C21.3581 12.0295 21.002 11.1423 20.4539 10.3754C19.9058 9.60852 19.1818 8.98429 18.3426 8.5551C17.5033 8.12591 16.5734 7.9043 15.6308 7.90887C14.6882 7.91343 13.7604 8.14403 12.9254 8.58132C12.7921 8.03066 12.5727 7.50447 12.2754 7.02215C13.367 6.47733 14.5739 6.20412 15.7937 6.22577C17.0134 6.24741 18.21 6.56326 19.2815 7.14646C20.353 7.72967 21.2679 8.56298 21.9483 9.57556C22.6287 10.5881 23.0545 11.75 23.1896 12.9625H25.7608C26.4306 12.9625 27.073 13.2286 27.5467 13.7022C28.0203 14.1759 28.2864 14.8183 28.2864 15.4881V23.907C28.2864 24.5768 28.0203 25.2193 27.5467 25.6929C27.073 26.1666 26.4306 26.4327 25.7608 26.4327H17.3419C16.6721 26.4327 16.0296 26.1666 15.556 25.6929C15.0823 25.2193 14.8162 24.5768 14.8162 23.907V21.3359ZM23.1896 14.6463C22.9989 16.3548 22.2328 17.9478 21.0172 19.1634C19.8015 20.3791 18.2086 21.1452 16.5 21.3359V23.907C16.5 24.1303 16.5887 24.3444 16.7466 24.5023C16.9045 24.6602 17.1186 24.7489 17.3419 24.7489H25.7608C25.984 24.7489 26.1982 24.6602 26.3561 24.5023C26.5139 24.3444 26.6026 24.1303 26.6026 23.907V15.4881C26.6026 15.2649 26.5139 15.0507 26.3561 14.8928C26.1982 14.735 25.984 14.6463 25.7608 14.6463H23.1896ZM21.4924 14.6463H17.3419C17.1186 14.6463 16.9045 14.735 16.7466 14.8928C16.5887 15.0507 16.5 15.2649 16.5 15.4881V19.6386C17.7597 19.4571 18.9267 18.8727 19.8266 17.9728C20.7265 17.0729 21.3109 15.9059 21.4924 14.6463ZM11.1035 15.5909C10.9267 14.9409 10.6405 14.2893 10.1488 13.7892C10.9436 13.0366 11.4487 11.8377 11.4487 10.4368C11.4487 9.26325 11.2113 8.45672 10.7819 7.81184C10.5909 7.53489 10.3707 7.27918 10.1253 7.04909L9.83902 6.77969C9.73631 6.68371 9.64202 6.59616 9.5191 6.47324C9.26654 6.22068 9.23791 6.01862 9.23791 5.91255C9.23725 5.85351 9.24693 5.79481 9.26654 5.73912C9.34352 5.57264 9.36403 5.38557 9.32494 5.20636C9.28586 5.02716 9.18931 4.86562 9.05 4.74632C8.91068 4.62701 8.73622 4.55647 8.55313 4.54542C8.37005 4.53436 8.18836 4.5834 8.0357 4.68508L8.03233 4.68676L8.02728 4.69013L8.01213 4.70023L7.96162 4.73391L7.78987 4.86019C7.59936 5.00455 7.41403 5.15562 7.23423 5.31312C6.80992 5.68355 6.26269 6.23415 5.87374 6.89082C5.53377 7.43499 5.26124 8.01849 5.06216 8.62847C4.86011 9.23294 4.71362 9.88793 4.71362 10.4368C4.71362 11.8377 5.21875 13.0349 6.01349 13.7909C5.52183 14.2893 5.23559 14.9409 5.0588 15.5925C4.71362 16.8587 4.71362 18.4246 4.71362 19.6353V19.6976C4.71362 23.1628 5.36187 25.2203 6.096 26.4444C6.46474 27.0573 6.84864 27.453 7.17024 27.7022C7.34208 27.8352 7.52849 27.9482 7.72589 28.039C7.84027 28.0807 7.95978 28.1068 8.08116 28.1164C8.2226 28.1164 8.43644 28.039 8.43644 28.039C8.63384 27.9482 8.82025 27.8352 8.99208 27.7022C9.312 27.453 9.69927 27.0573 10.0663 26.4444C10.8005 25.222 11.4487 23.1628 11.4487 19.6976V19.637C11.4487 18.4246 11.4487 16.8604 11.1035 15.5909ZM7.21739 14.9679C7.40766 14.7759 7.66191 14.6463 8.08116 14.6463C8.50211 14.6463 8.75467 14.7776 8.94494 14.9662C9.15709 15.18 9.34062 15.5269 9.47869 16.0337C9.7582 17.0625 9.76493 18.4129 9.76493 19.6976C9.76493 22.9675 9.15036 24.6984 8.62165 25.579C8.4196 25.9157 8.22934 26.1329 8.08116 26.2693C7.87169 26.0638 7.68998 25.8317 7.54067 25.579C7.01197 24.6967 6.39739 22.9675 6.39739 19.6976C6.39739 18.4129 6.40413 17.0625 6.68363 16.0337C6.8217 15.5286 7.00523 15.1817 7.21739 14.9679ZM8.08116 12.9625C7.43291 12.9625 6.39739 12.2418 6.39739 10.4368C6.39739 10.1455 6.48495 9.68419 6.66006 9.16222C6.81923 8.66929 7.03926 8.19812 7.31505 7.75964C7.46154 7.51213 7.6518 7.27135 7.85722 7.05078C7.97172 7.25732 8.12887 7.46218 8.32868 7.66535C8.45159 7.78827 8.61155 7.93644 8.74794 8.06441L8.95672 8.25972C9.13352 8.43147 9.26991 8.58132 9.37935 8.74802C9.5814 9.04941 9.76493 9.50571 9.76493 10.4368C9.76493 12.2418 8.72942 12.9625 8.08116 12.9625Z" fill="#111111"/>
</g>
</svg>
