<svg width="24" height="25" viewBox="0 0 24 25" fill="none" xmlns="http://www.w3.org/2000/svg">
<path d="M4 12.3301V22.3301M20 12.3301V22.3301M3 12.3301H21M4 17.3301H20M11 14.8301H13" stroke="#111111" stroke-width="1.5" stroke-linecap="round" stroke-linejoin="round"/>
<path d="M12 7.33008V12.3301M14.386 3.68508C14.2826 3.51441 14.1893 3.35608 14.106 3.21008C13.856 2.76708 13.73 2.54608 13.53 2.43808C13.33 2.33008 13.064 2.33008 12.531 2.33008H11.47C10.937 2.33008 10.67 2.33008 10.47 2.43808C10.27 2.54608 10.146 2.76808 9.89497 3.21008C9.80421 3.36991 9.71086 3.52827 9.61496 3.68508C8.41296 5.65408 7.81196 6.63808 8.05196 6.98408C8.29196 7.33008 9.41996 7.33008 11.676 7.33008H12.324C14.58 7.33008 15.708 7.33008 15.948 6.98408C16.188 6.63808 15.588 5.65408 14.386 3.68508Z" stroke="#111111" stroke-opacity="0.5" stroke-width="1.5" stroke-linecap="round" stroke-linejoin="round"/>
</svg>
